<svg width="2310" height="568" xmlns="http://www.w3.org/2000/svg" xmlns:xlink="http://www.w3.org/1999/xlink" xml:space="preserve" overflow="hidden"><defs><clipPath id="clip0"><rect x="1045" y="953" width="2310" height="568"/></clipPath><linearGradient x1="2307.75" y1="735.055" x2="2069.94" y2="1734.47" gradientUnits="userSpaceOnUse" spreadMethod="reflect" id="fill1"><stop offset="0" stop-color="#F6F8FC" stop-opacity="1"/><stop offset="0.31" stop-color="#EC994B" stop-opacity="1"/><stop offset="0.72" stop-color="#E67508" stop-opacity="1"/><stop offset="1" stop-color="#D34F04" stop-opacity="1"/></linearGradient></defs><g clip-path="url(#clip0)" transform="translate(-1045 -953)"><path d="M3077.32 1114.64 3077.32 1198.68 3116.04 1198.68C3142.88 1198.68 3156.96 1186.36 3156.96 1156.88 3156.96 1126.52 3142.88 1114.64 3116.04 1114.64ZM2981.84 1038.96 3135.4 1038.96C3212.4 1038.96 3252.44 1082.08 3252.44 1147.2 3252.44 1195.16 3228.68 1225.52 3192.16 1236.08 3228.68 1242.68 3243.2 1265.12 3246.28 1311.76L3249.36 1359.72C3250.24 1374.24 3252.88 1384.8 3256.84 1393.16L3161.8 1393.16C3157.84 1385.68 3156.08 1372.04 3155.2 1360.16L3152.56 1316.16C3150.8 1284.48 3140.24 1274.36 3114.28 1274.36L3077.32 1274.36 3077.32 1393.16 2981.84 1393.16ZM2685.64 1038.96 2916.2 1038.96 2916.2 1114.64 2781.12 1114.64 2781.12 1173.6 2898.16 1173.6 2898.16 1249.72 2781.12 1249.72 2781.12 1317.92 2918.84 1317.92 2918.84 1393.16 2685.64 1393.16ZM2389.44 1038.96 2620 1038.96 2620 1114.64 2484.92 1114.64 2484.92 1173.6 2601.96 1173.6 2601.96 1249.72 2484.92 1249.72 2484.92 1317.92 2622.64 1317.92 2622.64 1393.16 2389.44 1393.16ZM2062.77 1038.96 2335.57 1038.96 2335.57 1114.64 2247.13 1114.64 2247.13 1393.16 2151.65 1393.16 2151.65 1114.64 2062.77 1114.64ZM1736.89 1038.96 1828.85 1038.96 1916.85 1233 1916.85 1038.96 2008.81 1038.96 2008.81 1393.16 1916.85 1393.16 1828.85 1199.56 1828.85 1393.16 1736.89 1393.16ZM1385.65 1038.96 1480.69 1038.96 1480.69 1266.44C1480.69 1306.48 1497.41 1323.64 1526.89 1323.64 1556.37 1323.64 1573.09 1306.48 1573.09 1266.44L1573.09 1038.96 1668.13 1038.96 1668.13 1260.72C1668.13 1346.52 1623.25 1399.32 1526.89 1399.32 1430.53 1399.32 1385.65 1346.52 1385.65 1260.72ZM1100.95 1038.96 1328.87 1038.96 1328.87 1114.64 1196.43 1114.64 1196.43 1178.88 1313.47 1178.88 1313.47 1254.56 1196.43 1254.56 1196.43 1393.16 1100.95 1393.16Z" fill="url(#fill1)" fill-rule="evenodd"/><text fill="#000000" fill-opacity="0" font-family="Arial,Arial_MSFontService,sans-serif" font-size="360.36" direction="ltr" writing-mode="lr-tb" x="1100.95" y="1354.28">FUNTEER</text></g></svg>