<svg width="36" height="36" viewBox="0 0 36 36" fill="none" xmlns="http://www.w3.org/2000/svg">
<g clip-path="url(#clip0_1301_4098)">
<path d="M18 3C9.705 3 3 9.705 3 18C3 26.295 9.705 33 18 33C26.295 33 33 26.295 33 18C33 9.705 26.295 3 18 3ZM24.45 24.45C23.865 25.035 22.92 25.035 22.335 24.45L18 20.115L13.665 24.45C13.08 25.035 12.135 25.035 11.55 24.45C10.965 23.865 10.965 22.92 11.55 22.335L15.885 18L11.55 13.665C10.965 13.08 10.965 12.135 11.55 11.55C12.135 10.965 13.08 10.965 13.665 11.55L18 15.885L22.335 11.55C22.92 10.965 23.865 10.965 24.45 11.55C25.035 12.135 25.035 13.08 24.45 13.665L20.115 18L24.45 22.335C25.02 22.905 25.02 23.865 24.45 24.45Z" fill="#D34F04"/>
</g>
<defs>
<clipPath id="clip0_1301_4098">
<rect width="36" height="36" fill="white"/>
</clipPath>
</defs>
</svg>
