<svg width="10" height="10" viewBox="0 0 31 35" fill="none" xmlns="http://www.w3.org/2000/svg">
<path d="M29.3074 22.1706L21.2154 17.5016L29.3039 12.8326C30.6724 12.0451 31.1379 10.2951 30.3504 8.92656C29.5594 7.55806 27.8129 7.09256 26.4444 7.88006L18.3594 12.5491V3.21106C18.3594 1.63256 17.0784 0.351562 15.4999 0.351562C13.9214 0.351562 12.6404 1.63256 12.6404 3.21106V12.5526L4.55188 7.88006C3.18338 7.08906 1.43688 7.55806 0.645879 8.92656C-0.145121 10.2951 0.323879 12.0416 1.69238 12.8326L9.78438 17.5016L1.69238 22.1706C0.327379 22.9616 -0.141621 24.7081 0.649379 26.0766C1.43688 27.4451 3.18688 27.9141 4.55538 27.1231L12.6439 22.4541V31.7956C12.6439 33.3741 13.9249 34.6551 15.5034 34.6551C17.0819 34.6551 18.3629 33.3741 18.3629 31.7956V22.4506L26.4514 27.1196C27.8199 27.9106 29.5664 27.4416 30.3574 26.0731C31.1414 24.7081 30.6724 22.9616 29.3074 22.1706Z" fill="#EC994B"/>
</svg>
