<svg width="24" height="24" viewBox="0 0 24 24" fill="none" xmlns="http://www.w3.org/2000/svg">
<g clip-path="url(#clip0_1299_4091)">
<path d="M10 15.9987H14C14.55 15.9987 15 15.5487 15 14.9987V9.99875H16.59C17.48 9.99875 17.93 8.91875 17.3 8.28875L12.71 3.69875C12.32 3.30875 11.69 3.30875 11.3 3.69875L6.71 8.28875C6.08 8.91875 6.52 9.99875 7.41 9.99875H9V14.9987C9 15.5487 9.45 15.9987 10 15.9987ZM6 17.9987H18C18.55 17.9987 19 18.4487 19 18.9987C19 19.5487 18.55 19.9988 18 19.9988H6C5.45 19.9988 5 19.5487 5 18.9987C5 18.4487 5.45 17.9987 6 17.9987Z" fill="#EC994B"/>
</g>
<defs>
<clipPath id="clip0_1299_4091">
<rect width="24" height="24" fill="white"/>
</clipPath>
</defs>
</svg>
